<svg width="125" height="125" viewBox="0 0 125 125" fill="none" xmlns="http://www.w3.org/2000/svg">
<path d="M0 15.6281C0 7.0082 6.22938 0 13.8913 0H48.6196V31.2561C48.6196 35.5782 51.7234 39.0701 55.5652 39.0701H83.3478V73.1588L62.793 96.2835C61.0132 98.2858 59.7543 100.801 59.1466 103.536L55.8908 118.212C55.3916 120.507 55.5001 122.851 56.1946 125H13.8913C6.22938 125 0 117.992 0 109.372V15.6281ZM83.3478 31.2561H55.5652V0L83.3478 31.2561ZM119.335 57.5552L122.46 61.0715C125.847 64.8808 125.847 71.0588 122.46 74.8926L116.079 82.0717L100.669 64.7343L107.05 57.5552C110.436 53.7458 115.927 53.7458 119.335 57.5552ZM67.6984 101.827L95.7414 70.2774L111.152 87.6148L83.109 119.139C82.2191 120.141 81.1122 120.849 79.875 121.191L66.8302 124.853C65.6364 125.195 64.3992 124.805 63.531 123.828C62.6628 122.851 62.3155 121.459 62.6194 120.116L65.8752 105.441C66.179 104.073 66.8085 102.803 67.6984 101.802V101.827Z" fill="#040406"/>
</svg>
