<svg width="100" height="100" viewBox="0 0 100 100" fill="none" xmlns="http://www.w3.org/2000/svg">
<g clip-path="url(#clip0_127_92)">
<path d="M50 0C63.2608 0 75.9785 5.26784 85.3553 14.6447C94.7322 24.0215 100 36.7392 100 50C100 63.2608 94.7322 75.9785 85.3553 85.3553C75.9785 94.7322 63.2608 100 50 100C36.7392 100 24.0215 94.7322 14.6447 85.3553C5.26784 75.9785 0 63.2608 0 50C0 36.7392 5.26784 24.0215 14.6447 14.6447C24.0215 5.26784 36.7392 0 50 0ZM45.3125 23.4375V50C45.3125 51.5625 46.0938 53.0273 47.4023 53.9062L66.1523 66.4062C68.3008 67.8516 71.2109 67.2656 72.6562 65.0977C74.1016 62.9297 73.5156 60.0391 71.3477 58.5938L54.6875 47.5V23.4375C54.6875 20.8398 52.5977 18.75 50 18.75C47.4023 18.75 45.3125 20.8398 45.3125 23.4375Z" fill="#040406"/>
</g>
<defs>
<clipPath id="clip0_127_92">
<rect width="100" height="100" fill="white"/>
</clipPath>
</defs>
</svg>
