<svg width="100" height="134" viewBox="0 0 100 134" fill="none" xmlns="http://www.w3.org/2000/svg">
<g clip-path="url(#clip0_130_98)">
<path d="M16.6667 0C7.47396 0 0 7.47396 0 16.6667V116.667C0 125.859 7.47396 133.333 16.6667 133.333H83.3333C92.526 133.333 100 125.859 100 116.667V41.6667H66.6667C62.0573 41.6667 58.3333 37.9427 58.3333 33.3333V0H16.6667ZM66.6667 0V33.3333H100L66.6667 0ZM29.1667 66.6667H70.8333C73.125 66.6667 75 68.5417 75 70.8333C75 73.125 73.125 75 70.8333 75H29.1667C26.875 75 25 73.125 25 70.8333C25 68.5417 26.875 66.6667 29.1667 66.6667ZM29.1667 83.3333H70.8333C73.125 83.3333 75 85.2083 75 87.5C75 89.7917 73.125 91.6667 70.8333 91.6667H29.1667C26.875 91.6667 25 89.7917 25 87.5C25 85.2083 26.875 83.3333 29.1667 83.3333ZM29.1667 100H70.8333C73.125 100 75 101.875 75 104.167C75 106.458 73.125 108.333 70.8333 108.333H29.1667C26.875 108.333 25 106.458 25 104.167C25 101.875 26.875 100 29.1667 100Z" fill="#040406"/>
</g>
<defs>
<clipPath id="clip0_130_98">
<rect width="100" height="133.333" fill="white"/>
</clipPath>
</defs>
</svg>
