<svg width="100" height="134" viewBox="0 0 100 134" fill="none" xmlns="http://www.w3.org/2000/svg">
<g clip-path="url(#clip0_130_100)">
<path d="M50 0C39.1146 0 29.8437 6.95312 26.4323 16.6667H16.6667C7.47396 16.6667 0 24.1406 0 33.3333V116.667C0 125.859 7.47396 133.333 16.6667 133.333H83.3333C92.526 133.333 100 125.859 100 116.667V33.3333C100 24.1406 92.526 16.6667 83.3333 16.6667H73.5677C70.1562 6.95312 60.8854 0 50 0ZM50 16.6667C52.2101 16.6667 54.3298 17.5446 55.8926 19.1074C57.4554 20.6702 58.3333 22.7899 58.3333 25C58.3333 27.2101 57.4554 29.3298 55.8926 30.8926C54.3298 32.4554 52.2101 33.3333 50 33.3333C47.7899 33.3333 45.6702 32.4554 44.1074 30.8926C42.5446 29.3298 41.6667 27.2101 41.6667 25C41.6667 22.7899 42.5446 20.6702 44.1074 19.1074C45.6702 17.5446 47.7899 16.6667 50 16.6667ZM79.4271 71.0938L46.0938 104.427C43.6458 106.875 39.6875 106.875 37.2656 104.427L20.5729 87.7604C18.125 85.3125 18.125 81.3542 20.5729 78.9323C23.0208 76.5104 26.9792 76.4844 29.401 78.9323L41.6406 91.1719L70.5729 62.2396C73.0208 59.7917 76.9792 59.7917 79.401 62.2396C81.8229 64.6875 81.849 68.6458 79.401 71.0677L79.4271 71.0938Z" fill="#040406"/>
</g>
<defs>
<clipPath id="clip0_130_100">
<rect width="100" height="133.333" fill="white"/>
</clipPath>
</defs>
</svg>
